<?xml version="1.0" standalone="no"?>
<!DOCTYPE svg PUBLIC "-//W3C//DTD SVG 20010904//EN"
 "http://www.w3.org/TR/2001/REC-SVG-20010904/DTD/svg10.dtd">
<svg version="1.0" xmlns="http://www.w3.org/2000/svg"
 width="676.000000pt" height="541.000000pt" viewBox="0 0 676.000000 541.000000"
 preserveAspectRatio="xMidYMid meet">

<g transform="translate(0.000000,541.000000) scale(0.100000,-0.100000)"
fill="#000000" stroke="none">
<path d="M0 2705 l0 -2705 3380 0 3380 0 0 2705 0 2705 -3380 0 -3380 0 0
-2705z m4330 1787 c0 -918 0 -915 -54 -1001 -50 -79 -164 -148 -228 -139 l-23
3 -3 448 -2 447 -220 0 -220 0 0 -494 c0 -544 0 -543 -62 -612 -87 -97 -214
-98 -305 -2 -61 63 -63 80 -63 504 l0 384 -232 0 -233 0 3 -422 c2 -421 2
-423 27 -502 64 -198 209 -343 390 -391 180 -46 456 5 683 127 l92 49 0 -591
0 -591 -661 333 c-724 364 -740 374 -795 485 l-29 58 -3 1063 c-1 584 1 1062
4 1062 4 0 36 -16 73 -35 92 -48 651 -325 656 -325 3 0 5 84 5 188 l0 187 238
123 c130 67 397 205 592 307 195 101 358 185 363 185 4 0 7 -382 7 -848z
m2230 -3161 c0 -5 -48 -50 -107 -100 l-107 -91 -80 0 c-45 0 -76 4 -71 8 6 4
43 46 83 94 40 48 78 89 85 92 22 8 197 6 197 -3z m-5965 -273 c72 -15 165
-58 165 -76 0 -8 -12 -48 -27 -89 -21 -54 -32 -72 -43 -69 -8 2 -44 17 -80 32
-55 24 -79 28 -155 29 -99 0 -143 -17 -164 -62 -31 -68 2 -112 110 -143 282
-80 337 -109 379 -195 26 -54 30 -138 10 -210 -19 -69 -103 -153 -185 -185
-51 -21 -78 -24 -185 -24 -134 0 -200 13 -290 59 -86 44 -84 41 -54 115 14 36
30 75 35 88 l9 22 39 -25 c65 -44 140 -67 232 -72 128 -8 199 23 199 88 0 67
-24 83 -199 133 -199 57 -262 95 -302 181 -23 50 -25 154 -3 217 54 161 265
238 509 186z m3896 -4 c257 -77 400 -322 344 -595 -21 -105 -61 -182 -133
-254 -189 -188 -512 -187 -701 2 -94 94 -141 214 -141 358 0 201 100 372 267
459 89 46 262 60 364 30z m1089 -9 c77 -28 121 -57 114 -75 -3 -8 -17 -46 -31
-83 -15 -40 -30 -66 -37 -63 -115 51 -146 60 -223 64 -69 3 -90 1 -127 -17
-53 -26 -72 -66 -56 -117 14 -40 43 -55 203 -100 151 -43 220 -77 263 -129 92
-113 58 -307 -70 -393 -27 -18 -74 -40 -105 -49 -69 -20 -233 -22 -311 -4 -64
16 -194 73 -205 90 -5 9 40 135 60 169 1 1 31 -13 67 -32 142 -74 313 -83 379
-20 31 29 38 69 19 105 -16 28 -71 53 -200 89 -141 39 -185 58 -234 100 -57
51 -77 98 -77 185 0 144 71 237 219 286 47 16 78 18 182 15 82 -3 141 -10 170
-21z m-4068 -97 c103 -248 321 -776 339 -820 l19 -48 -113 0 -112 0 -39 105
-39 105 -207 0 -208 0 -40 -103 -39 -102 -112 -3 -111 -3 12 30 c7 17 99 237
203 490 l190 461 105 0 105 0 47 -112z m759 40 c30 -40 129 -171 219 -291
l165 -218 3 290 2 291 105 0 105 0 0 -490 0 -490 -88 0 -87 0 -220 290 -220
290 -3 -290 -2 -290 -105 0 -105 0 0 490 0 490 88 0 88 0 55 -72z m1377 63
c11 -7 13 -75 10 -367 -5 -394 -9 -423 -69 -511 -36 -51 -128 -99 -209 -108
-67 -8 -158 7 -219 37 -48 23 -121 84 -121 101 0 5 25 41 56 79 l56 69 34 -36
c80 -85 200 -88 241 -6 16 31 18 70 21 304 l3 267 -160 0 -161 0 0 83 c0 46 3
87 7 90 9 10 496 8 511 -2z m2992 -81 l0 -90 -235 0 -235 0 0 -110 0 -110 210
0 210 0 0 -85 0 -85 -210 0 -210 0 0 -115 0 -115 245 0 245 0 0 -90 0 -90
-350 0 -350 0 0 483 c0 266 3 487 7 490 3 4 156 7 340 7 l333 0 0 -90z"/>
<path d="M4260 865 c-63 -20 -124 -75 -157 -143 -25 -50 -28 -68 -28 -152 0
-78 4 -104 23 -145 50 -108 138 -165 257 -165 122 0 199 51 251 165 34 74 39
182 11 262 -22 62 -85 136 -141 165 -52 27 -155 33 -216 13z"/>
<path d="M1288 642 c-37 -97 -66 -177 -64 -179 2 -2 64 -2 139 -1 l135 3 -64
170 c-36 94 -68 173 -72 177 -4 4 -37 -73 -74 -170z"/>
</g>
</svg>
