<?xml version="1.0" standalone="no"?>
<!DOCTYPE svg PUBLIC "-//W3C//DTD SVG 20010904//EN"
 "http://www.w3.org/TR/2001/REC-SVG-20010904/DTD/svg10.dtd">
<svg version="1.0" xmlns="http://www.w3.org/2000/svg"
 width="500.000000pt" height="500.000000pt" viewBox="0 0 500.000000 500.000000"
 preserveAspectRatio="xMidYMid meet">

<g transform="translate(0.000000,500.000000) scale(0.100000,-0.100000)"
fill="#000000" stroke="none">
<path d="M2855 4114 c-198 -90 -390 -177 -427 -194 l-68 -30 0 -123 0 -123 48
-23 c52 -26 243 -111 248 -111 2 0 4 20 4 45 l0 45 165 0 165 0 0 -290 c0
-159 2 -290 5 -290 14 0 114 56 146 81 70 55 68 37 76 638 3 298 4 541 2 540
-2 0 -166 -75 -364 -165z"/>
<path d="M3761 1546 c1 -28 3 -43 6 -33 5 21 31 23 39 2 4 -8 11 -15 17 -15 8
0 8 3 0 11 -8 8 -9 16 -1 29 16 26 4 47 -31 52 l-31 5 1 -51z m54 14 c0 -8
-10 -16 -22 -18 -18 -3 -23 2 -23 18 0 16 5 21 23 18 12 -2 22 -10 22 -18z"/>
<path d="M731 1543 c1 -27 4 -38 6 -26 2 13 13 24 26 26 l22 4 -22 2 c-33 2
-29 29 5 34 25 4 25 4 -5 6 -33 1 -33 1 -32 -46z"/>
<path d="M824 1556 c2 -72 70 -77 72 -5 l1 34 -4 -33 c-8 -60 -58 -51 -66 11
-4 26 -4 24 -3 -7z"/>
<path d="M942 1543 c1 -47 1 -47 5 -8 l4 39 34 -39 34 -40 -1 50 c-1 45 -1 46
-7 16 l-6 -35 -27 32 c-15 18 -29 32 -32 32 -3 0 -5 -21 -4 -47z"/>
<path d="M1060 1545 c0 -44 1 -45 33 -45 38 0 57 15 57 45 0 30 -19 45 -57 45
-32 0 -33 -1 -33 -45z m77 19 c9 -24 -10 -49 -41 -52 -24 -3 -26 0 -26 32 0
33 2 36 30 36 19 0 33 -6 37 -16z"/>
<path d="M1191 1543 c-12 -27 -17 -42 -10 -35 15 14 69 16 69 2 0 -5 4 -10 10
-10 5 0 0 20 -12 45 -12 25 -25 45 -28 45 -3 0 -16 -21 -29 -47z m43 11 c9
-23 8 -24 -14 -24 -22 0 -23 1 -14 24 8 20 20 20 28 0z"/>
<path d="M1300 1576 c-19 -24 -8 -60 23 -70 18 -7 31 -6 38 1 7 7 4 9 -13 6
-28 -5 -51 17 -46 44 2 12 16 20 38 24 l35 6 -31 2 c-17 0 -37 -6 -44 -13z"/>
<path d="M1400 1545 c0 -27 3 -45 7 -41 7 7 5 77 -2 85 -3 2 -5 -17 -5 -44z"/>
<path d="M1460 1575 c-17 -20 -5 -62 20 -70 47 -15 82 23 60 65 -13 24 -61 27
-80 5z m71 -11 c17 -21 0 -49 -31 -49 -31 0 -48 28 -31 49 8 9 21 16 31 16 10
0 23 -7 31 -16z"/>
<path d="M1581 1543 l2 -48 6 40 6 39 32 -39 32 -40 -1 50 c-1 45 -1 47 -7 15
l-6 -35 -23 33 c-13 17 -28 32 -33 32 -5 0 -8 -21 -8 -47z"/>
<path d="M1750 1545 c0 -42 2 -45 26 -45 38 0 64 18 64 43 0 32 -18 47 -57 47
-32 0 -33 -1 -33 -45z m75 15 c9 -27 -11 -50 -41 -50 -21 0 -24 5 -24 35 0 32
2 35 29 35 21 0 32 -6 36 -20z"/>
<path d="M1880 1545 c0 -44 0 -45 33 -44 30 2 30 2 5 6 -34 5 -37 30 -5 36
l22 4 -22 2 c-13 0 -23 7 -23 15 0 8 10 17 23 19 19 4 18 4 -5 6 -27 1 -28 -1
-28 -44z"/>
<path d="M2030 1545 c0 -44 0 -45 33 -44 30 2 30 2 5 6 -34 5 -37 30 -5 36
l22 4 -22 2 c-33 2 -29 29 5 34 25 4 25 4 -5 6 -33 1 -33 0 -33 -44z"/>
<path d="M2130 1545 c0 -43 1 -45 28 -45 16 0 37 9 47 20 15 17 16 24 7 45 -9
20 -19 25 -47 25 -35 0 -35 0 -35 -45z m69 21 c18 -22 -3 -56 -34 -56 -22 0
-25 4 -25 35 0 30 3 35 24 35 13 0 29 -6 35 -14z"/>
<path d="M2254 1551 c2 -72 70 -67 72 5 1 31 1 33 -3 7 -8 -62 -58 -71 -66
-11 l-4 33 1 -34z"/>
<path d="M2370 1575 c-19 -23 -4 -64 26 -71 14 -4 30 -2 35 3 7 7 3 9 -13 6
-30 -6 -52 18 -43 46 4 13 17 21 38 24 l32 4 -31 1 c-18 1 -37 -5 -44 -13z"/>
<path d="M2482 1545 c-12 -25 -17 -45 -12 -45 6 0 10 5 10 10 0 6 14 10 30 10
17 0 30 -4 30 -10 0 -5 4 -10 10 -10 5 0 0 20 -12 45 -12 25 -25 45 -28 45 -3
0 -16 -20 -28 -45z m42 9 c9 -23 8 -24 -14 -24 -11 0 -20 2 -20 4 0 12 13 36
20 36 4 0 11 -7 14 -16z"/>
<path d="M2590 1576 c-19 -24 -8 -60 23 -70 18 -7 31 -6 38 1 7 7 4 9 -13 6
-28 -5 -51 17 -46 44 2 12 16 20 38 24 l35 6 -31 2 c-17 0 -37 -6 -44 -13z"/>
<path d="M2698 1549 c-2 -22 0 -43 4 -45 4 -3 8 15 8 40 0 57 -7 60 -12 5z"/>
<path d="M2750 1575 c-18 -22 -4 -64 24 -71 50 -12 88 40 54 74 -17 17 -63 15
-78 -3z m71 -11 c17 -21 0 -49 -31 -49 -31 0 -48 28 -31 49 8 9 21 16 31 16
10 0 23 -7 31 -16z"/>
<path d="M2871 1543 l2 -48 6 40 6 39 32 -39 32 -40 -1 50 c-1 45 -1 47 -7 15
l-6 -35 -23 33 c-13 17 -28 32 -33 32 -5 0 -8 -21 -8 -47z"/>
<path d="M3040 1570 c0 -13 9 -22 25 -26 34 -8 34 -38 0 -32 -13 3 -22 1 -19
-3 8 -14 40 -11 53 5 12 14 2 27 -31 39 -27 10 -22 25 10 30 25 4 25 4 -5 6
-27 1 -33 -3 -33 -19z"/>
<path d="M3141 1553 c-1 -38 2 -43 25 -49 14 -4 30 -2 35 3 15 15 24 83 11 83
-6 0 -12 -17 -14 -37 -2 -30 -7 -38 -23 -38 -16 0 -21 9 -26 40 l-6 40 -2 -42z"/>
<path d="M3261 1543 c1 -26 3 -40 6 -31 2 9 16 18 31 20 21 2 27 8 27 28 0 21
-5 26 -32 28 l-33 3 1 -48z m57 20 c-2 -10 -13 -19 -26 -21 -17 -3 -22 2 -22
17 0 16 6 21 26 21 19 0 25 -5 22 -17z"/>
<path d="M3370 1545 c0 -44 0 -45 33 -44 30 2 30 2 5 6 -34 5 -37 30 -5 36
l22 4 -22 2 c-33 2 -29 29 5 34 25 4 25 4 -5 6 -33 1 -33 0 -33 -44z"/>
<path d="M3471 1543 c1 -26 3 -40 6 -30 5 21 21 22 42 3 14 -13 16 -10 16 27
0 40 -2 42 -32 45 l-33 3 1 -48z m57 20 c-2 -10 -13 -19 -26 -21 -17 -3 -22 2
-22 17 0 16 6 21 26 21 19 0 25 -5 22 -17z"/>
<path d="M3583 1545 c0 -27 2 -38 4 -22 2 15 2 37 0 50 -2 12 -4 0 -4 -28z"/>
<path d="M3628 1565 c-10 -22 -9 -29 10 -47 18 -18 26 -20 49 -12 53 18 38 84
-18 84 -22 0 -32 -7 -41 -25z m79 -1 c16 -41 -46 -73 -67 -34 -9 16 -8 25 1
36 16 19 58 18 66 -2z"/>
<path d="M852 1370 c-55 -8 -125 -48 -137 -78 -17 -41 -22 -86 -14 -117 14
-50 62 -82 163 -107 109 -26 135 -47 100 -82 -22 -23 -112 -20 -176 4 -29 11
-54 20 -56 20 -8 0 -42 -91 -37 -99 13 -22 113 -45 195 -46 69 0 94 4 132 23
59 29 88 74 88 135 0 66 -38 108 -122 131 -35 10 -81 23 -102 30 -54 15 -68
41 -37 67 30 24 86 25 151 0 l50 -19 20 45 c25 58 25 58 -7 72 -25 10 -141 33
-153 30 -3 -1 -29 -5 -58 -9z"/>
<path d="M1362 1343 c-6 -16 -52 -120 -102 -233 -51 -113 -94 -213 -97 -222
-5 -16 3 -18 65 -18 l70 0 18 50 18 50 106 0 106 0 18 -50 18 -50 74 0 74 0
-24 53 c-12 28 -63 141 -111 250 l-88 197 -68 0 c-64 0 -68 -1 -77 -27z m111
-191 c15 -38 27 -71 27 -75 0 -4 -27 -7 -60 -7 -33 0 -60 3 -60 7 0 12 55 143
60 143 3 0 17 -31 33 -68z"/>
<path d="M1807 1363 c-4 -3 -7 -116 -7 -250 l0 -243 70 0 69 0 3 130 3 131
108 -131 108 -130 55 0 54 0 0 250 0 250 -65 0 -65 0 0 -130 c0 -71 -3 -130
-7 -129 -5 0 -55 58 -113 129 l-105 130 -51 0 c-28 0 -54 -3 -57 -7z"/>
<path d="M2183 685 c0 -27 2 -38 4 -22 2 15 2 37 0 50 -2 12 -4 0 -4 -28z"/>
<path d="M2232 685 c1 -45 1 -46 7 -16 l6 35 32 -40 32 -39 -1 55 c-1 46 -2
48 -5 15 l-4 -39 -34 39 -34 40 1 -50z"/>
<path d="M2352 717 c-13 -16 -3 -34 22 -38 32 -6 31 -29 -1 -29 -21 0 -24 -3
-14 -9 18 -12 51 4 51 24 0 8 -11 17 -25 21 -34 8 -34 38 0 32 13 -3 22 -1 19
3 -8 13 -40 11 -52 -4z"/>
<path d="M2443 723 c12 -3 17 -15 17 -44 0 -21 5 -39 10 -39 6 0 10 18 10 39
0 29 5 41 18 44 9 3 -3 5 -28 5 -25 0 -37 -2 -27 -5z"/>
<path d="M2543 685 c0 -27 2 -38 4 -22 2 15 2 37 0 50 -2 12 -4 0 -4 -28z"/>
<path d="M2587 723 c18 -3 23 -13 26 -46 l4 -42 1 42 c2 30 7 43 20 46 9 3 -3
5 -28 4 -25 0 -35 -2 -23 -4z"/>
<path d="M2684 690 c1 -43 3 -45 32 -48 26 -3 33 1 38 20 9 35 7 68 -4 68 -5
0 -10 -18 -10 -41 0 -36 -2 -40 -22 -37 -18 2 -24 12 -29 43 l-7 40 2 -45z"/>
<path d="M2808 719 c-21 -12 -24 -49 -6 -67 7 -7 26 -11 43 -11 30 2 30 2 -5
8 -22 4 -36 12 -38 24 -6 28 18 49 46 42 15 -4 21 -2 17 5 -8 13 -35 12 -57
-1z"/>
<path d="M2913 685 c0 -27 2 -38 4 -22 2 15 2 37 0 50 -2 12 -4 0 -4 -28z"/>
<path d="M2966 714 c-32 -32 -13 -74 34 -74 30 0 50 16 50 41 0 23 -27 49 -50
49 -10 0 -26 -7 -34 -16z m64 -13 c15 -29 2 -51 -30 -51 -20 0 -31 6 -35 20
-14 43 44 69 65 31z"/>
<path d="M3082 683 c1 -39 2 -42 5 -14 l4 34 34 -33 33 -32 3 46 c3 25 1 46
-3 46 -5 0 -8 -16 -8 -37 l0 -36 -27 36 c-16 20 -31 36 -35 37 -5 0 -7 -21 -6
-47z"/>
<path d="M3253 723 c13 -3 17 -15 17 -45 0 -49 7 -48 12 2 2 24 9 37 23 42 12
3 3 6 -25 6 -25 0 -37 -2 -27 -5z"/>
<path d="M3340 685 l0 -45 38 2 37 1 -33 4 c-38 5 -38 24 -1 34 23 7 23 7 -4
8 -37 1 -31 24 9 32 27 6 27 7 -8 8 l-38 1 0 -45z"/>
<path d="M3458 719 c-21 -12 -24 -49 -6 -67 7 -7 26 -11 43 -11 30 2 30 2 -5
8 -22 4 -36 12 -38 24 -5 26 18 49 45 44 12 -2 20 0 17 4 -7 12 -35 11 -56 -2z"/>
<path d="M3561 685 c1 -44 2 -46 8 -17 l6 34 23 -31 c31 -43 42 -39 42 14 0
25 -4 45 -10 45 -5 0 -10 -15 -10 -32 l-1 -33 -29 35 -30 34 1 -49z"/>
<path d="M3686 714 c-32 -32 -13 -74 34 -74 30 0 50 16 50 41 0 23 -27 49 -50
49 -10 0 -26 -7 -34 -16z m64 -9 c20 -24 3 -55 -30 -55 -20 0 -31 6 -35 20 -8
25 10 50 35 50 10 0 23 -7 30 -15z"/>
<path d="M3802 688 l-2 -48 33 1 c29 2 29 2 5 6 -24 4 -27 10 -31 46 l-4 42
-1 -47z"/>
<path d="M3906 717 c-23 -17 -18 -70 7 -75 40 -8 67 7 67 36 0 48 -36 67 -74
39z m60 -23 c8 -31 -6 -47 -37 -42 -16 2 -25 11 -27 27 -7 44 53 58 64 15z"/>
<path d="M4026 714 c-33 -32 -13 -74 36 -74 23 0 28 4 27 23 -1 16 -2 18 -6 5
-6 -23 -49 -24 -57 -2 -10 27 13 57 40 51 13 -2 21 0 18 4 -8 14 -41 10 -58
-7z"/>
<path d="M4133 685 c0 -27 2 -38 4 -22 2 15 2 37 0 50 -2 12 -4 0 -4 -28z"/>
<path d="M4196 714 c-35 -34 -9 -79 41 -71 28 4 28 4 -3 6 -36 1 -49 22 -33
53 8 14 18 19 35 15 13 -2 21 0 18 4 -8 14 -41 10 -58 -7z"/>
<path d="M4302 688 c-11 -24 -17 -45 -14 -48 3 -3 7 1 9 8 6 15 63 16 63 0 0
-6 2 -9 5 -6 6 6 -28 88 -37 88 -4 0 -16 -19 -26 -42z m33 -16 c-22 -5 -27 1
-19 23 7 17 8 17 21 -1 12 -17 12 -19 -2 -22z"/>
</g>
</svg>
